<svg xmlns="http://www.w3.org/2000/svg" version="1.1" xmlns:xlink="http://www.w3.org/1999/xlink" xmlns:svgjs="http://svgjs.com/svgjs" width="1790.7" height="1790.7"><svg xmlns="http://www.w3.org/2000/svg" version="1.1" xmlns:xlink="http://www.w3.org/1999/xlink" viewBox="0 0 1790.7 1790.7">
  <defs>
    <style>
      .cls-1 {
        fill: url(#Degradado_sin_nombre_46);
      }

      .cls-1, .cls-2, .cls-3, .cls-4, .cls-5 {
        stroke-width: 0px;
      }

      .cls-2 {
        fill: #000;
      }

      .cls-3 {
        fill: #fcfcfc;
      }

      .cls-4 {
        fill: none;
      }

      .cls-6 {
        clip-path: url(#clippath);
      }

      .cls-5 {
        fill: #fff;
      }

      .cls-7 {
        display: none;
      }
    </style>
    <linearGradient id="SvgjsLinearGradient1005" data-name="Degradado sin nombre 46" x1="-.59" y1="894.93" x2="1790.41" y2="894.93" gradientUnits="userSpaceOnUse">
      <stop offset="0" stop-color="#433fff"></stop>
      <stop offset=".34" stop-color="#2a5bdc"></stop>
      <stop offset=".77" stop-color="#0d7bb5"></stop>
      <stop offset="1" stop-color="#0388a6"></stop>
    </linearGradient>
    <clipPath id="SvgjsClipPath1004">
      <path class="cls-4" d="M1745.28,948.31c0,471.63-403.16,748.03-872.56,748.03-209.86,0-359.53-60.73-389.12-73.87-49.32-21.9-170.93-77.42-273.27-196.46C40.76,1228.77,45.43,997.34,45.43,948.31c0-471.63,380.52-853.96,849.92-853.96s849.92,382.33,849.92,853.96Z"></path>
    </clipPath>
  </defs>
  <g id="SvgjsG1003" data-name="Capa 4">
    <circle class="cls-1" cx="894.91" cy="894.93" r="895.5"></circle>
  </g>
  <g id="SvgjsG1002" data-name="Capa 1" class="cls-7">
    <g id="SvgjsG1001" data-name="Capa 3">
      <rect class="cls-2" x="942.98" y="1056" width="714.86" height="711.68"></rect>
    </g>
  </g>
  <g id="SvgjsG1000" data-name="Capa 2">
    <g class="cls-6">
      <path class="cls-3" d="M462.55,986.43h-7.69c-36.4,0-186.21-1.77-224.55,0-68.85,3.18-135.08-41.78-154.46-102.63-6.05-18.99-6.25-38.25-5.3-57.72,4.08-84.06,27.06-164.11,64.79-241.07,42.69-87.08,99.29-166.15,173.16-235.23,65.55-61.3,140.87-111.27,224.98-150.88,19.5-9.18,39.56-17.43,59.44-25.98,3.62-1.56,7.6-2.45,12.51-4-4.07,14.31-7.83,27.59-11.63,40.85-20.52,71.5-41.11,142.98-61.55,214.49-3.41,11.92-9.38,22.53-20.06,30.44-77.95,57.76-130.77,130.8-165.32,214.57-8.76,21.23-13.86,43.66-20.25,65.63-1.14,3.9-2.84,4.86-7.13,4.85-34.15-.09-68.3-.33-102.44.3-10.31.19-20.69,2.5-30.79,4.73-4.3.95-8.39,3.73-11.82,6.44-9.15,7.21-11.86,17.27-5.13,25.5,16.56,20.25,35.66,37.87,66.24,40.36,2.24.18,246.53.62,262.29.63,11.67,0,15.78-2.84,18.58-12.87,25.91-92.52,135.83-485.14,164.9-588.93,4.01-14.32,7.63-28.74,12.18-42.92,7.33-22.84,21.51-41.32,46.51-51.61,48.02-19.76,103.9,5.81,115.42,52.49,3.3,13.36,3,26.61-.74,39.91-34.58,123.24-359.58,1287.47-387.81,1388.53-2.62,9.38-7.84,15.34-19.14,16.87-35.32,4.78-67.05-1.57-92.56-24.6-23.19-20.93-32.02-46.98-31.35-75.92.42-17.99,7-34.88,11.65-52.09,24.24-89.64,107.87-402.97,125.28-470.03.79-3.03,1.09-6.15,1.77-10.11Z"></path>
      <path class="cls-5" d="M1537.82,1398.36c-4.09-12.92-8.2-25.12-11.82-37.44-21.4-72.66-42.69-145.35-64.02-218.03-3.95-13.46-2.05-25.83,5.65-38.33,7.13-11.57,11.94-24.28,17.42-36.6,1.53-3.43,3.35-4.76,7.65-4.72,33.19.27,66.38.36,99.58.32,3.21,0,6.82-.73,9.55-2.15,10.31-5.35,20.38-11.08,30.46-16.77,4.22-2.38,4.65-5.61,2.3-9.44-18.06-29.38-43.53-48.63-83.52-48.61-71.11.04-142.23-.09-213.34-.14-2.24,0-4.48,0-7.67,0,1.49,5.78,2.81,11.15,4.27,16.5,45.13,166.01,90.22,332.03,135.46,498.02,6.94,25.48,6.25,50.24-9,73.24-20.82,31.39-52.91,45.8-93.54,45.97-6.15.03-12.31-1.04-18.47-1.37-11.45-.61-16.71-6.91-19.26-15.9-5.29-18.65-10.64-37.28-15.93-55.93-44.78-158.07-89.51-316.15-134.33-474.2-27.91-98.41-55.93-196.78-83.94-295.17-27.74-97.41-55.69-194.77-83.26-292.22-25.2-89.08-50.05-178.24-74.96-267.39-5.42-19.41-6.22-38.86,2.89-57.64,20.19-41.63,79.46-63.43,126.38-32.38,16.05,10.62,26.19,25,31.11,42.1,19.31,67.15,38.32,134.36,57.67,201.5,29.25,101.52,58.69,203,88.06,304.49,12.27,42.39,24.55,84.78,36.81,127.18q4,13.82,20.1,13.82c84.81,0,169.62-.19,254.43.06,74.49.22,126.32,32.76,159.42,90.11,16.32,28.28,20.25,59.07,18.66,90.53-4.6,90.86-32.44,175.99-80.4,256.18-29.96,50.09-66.03,96.44-108.55,138.84-1.72,1.71-3.52,3.36-5.84,5.57Z"></path>
      <path class="cls-5" d="M1243.21,1614.43c-2.94,0-4.96,0-6.98,0-26.83,0-53.66-.07-80.5.02-26.26.08-52.52.26-78.78.51-14.62.14-19.08-2.68-22.46-15.23-28.1-104.33-122.37-452.52-141.68-522.23-4.19-15.12-9.37-30.03-14.26-45-.54-1.65-2.13-3.04-3.24-4.55-1.19,1.6-3.01,3.06-3.47,4.81-16.38,61.47-109.28,408.93-139.49,521.17-4.25,15.8-8.48,31.61-13.03,47.35-.99,3.43-2.73,6.98-5.23,9.67-1.74,1.87-5.37,3.32-8.17,3.34-56.47.35-112.94.47-169.41.62-.74,0-1.48-.09-2.97-.19,1.71-6.38,3.31-12.57,5.02-18.73,36.64-131.49,256.88-921.73,288.49-1035.2,14.49-51.99,28.89-103.99,43.45-155.97.55-1.97,1.84-4.67,3.6-5.32,4.08-1.51,6.03.54,7.11,4.39,19.51,69.5,39.21,138.97,58.84,208.44,51.25,181.42,233.63,827,273.57,968.37,3.08,10.91,6.19,21.82,9.56,33.72Z"></path>
    </g>
  </g>
</svg><style>@media (prefers-color-scheme: light) { :root { filter: none; } }
</style></svg>