<?xml version="1.0" standalone="no"?>
<!DOCTYPE svg PUBLIC "-//W3C//DTD SVG 20010904//EN"
 "http://www.w3.org/TR/2001/REC-SVG-20010904/DTD/svg10.dtd">
<svg version="1.0" xmlns="http://www.w3.org/2000/svg"
 width="715.000000pt" height="715.000000pt" viewBox="0 0 715.000000 715.000000"
 preserveAspectRatio="xMidYMid meet">
<metadata>
Created by potrace 1.14, written by Peter Selinger 2001-2017
</metadata>
<g transform="translate(0.000000,715.000000) scale(0.100000,-0.100000)"
fill="#000000" stroke="none">
<path d="M3487 7113 c-1 -1 -55 -4 -118 -8 -64 -3 -125 -7 -135 -9 -11 -2 -50
-7 -89 -10 -38 -4 -77 -9 -85 -11 -8 -2 -31 -6 -50 -9 -40 -6 -72 -13 -115
-23 -16 -3 -39 -8 -50 -9 -11 -1 -40 -7 -65 -13 -25 -6 -54 -14 -65 -16 -11
-3 -51 -14 -90 -25 -38 -12 -77 -23 -85 -25 -37 -8 -176 -59 -187 -68 -7 -5
-13 -7 -13 -4 0 3 -21 -3 -47 -14 -27 -11 -57 -24 -68 -29 -357 -149 -711
-371 -994 -625 -111 -98 -293 -290 -386 -405 -20 -25 -43 -53 -51 -63 -8 -10
-32 -42 -52 -70 -20 -29 -39 -54 -42 -57 -6 -6 -83 -121 -90 -135 -3 -5 -19
-32 -37 -60 -17 -27 -32 -54 -31 -59 0 -5 -5 -12 -10 -15 -10 -6 -186 -343
-183 -349 1 -1 -6 -19 -15 -40 -23 -54 -75 -185 -78 -197 -1 -5 -19 -62 -39
-125 -37 -119 -82 -289 -92 -350 -3 -19 -8 -42 -10 -50 -3 -13 -10 -54 -20
-125 -2 -11 -6 -35 -10 -54 -33 -181 -39 -734 -9 -886 2 -11 6 -40 9 -65 3
-25 8 -56 10 -70 3 -14 7 -43 11 -65 3 -22 7 -47 9 -55 2 -8 7 -31 10 -50 3
-19 11 -53 17 -75 6 -22 12 -47 14 -55 2 -13 30 -119 38 -145 1 -5 8 -30 15
-54 7 -24 17 -55 23 -70 6 -14 12 -33 14 -41 3 -15 74 -196 110 -280 18 -42
120 -245 160 -320 10 -19 22 -36 27 -38 4 -2 7 -10 7 -18 0 -8 5 -14 10 -14 6
0 10 -4 10 -10 0 -21 169 -268 261 -381 142 -175 311 -348 474 -484 26 -22 52
-44 59 -50 6 -5 47 -37 91 -70 164 -125 328 -227 516 -324 80 -42 277 -132
294 -135 6 -1 19 -7 30 -13 11 -6 22 -11 25 -11 3 -1 12 -3 20 -6 69 -25 196
-67 245 -81 33 -9 76 -22 95 -28 19 -6 40 -12 45 -13 6 -1 24 -4 40 -7 17 -4
46 -10 65 -15 19 -5 38 -9 43 -10 4 -1 8 -2 10 -3 1 0 11 -2 22 -4 11 -1 36
-6 55 -9 19 -4 49 -9 65 -11 17 -2 46 -6 65 -9 114 -17 214 -27 311 -30 42 -2
81 -6 87 -10 6 -3 13 -2 16 3 3 4 20 6 38 4 18 -3 38 -5 43 -5 41 1 288 13
320 16 86 9 153 17 171 20 10 2 39 7 64 11 25 3 57 9 73 11 59 9 279 61 332
78 6 1 24 6 40 11 55 14 182 57 250 85 11 4 40 16 65 25 123 46 402 185 520
259 89 56 225 150 228 158 2 4 8 8 12 8 12 0 120 81 120 90 0 4 9 11 19 16 74
34 461 425 573 579 4 5 18 24 31 40 42 53 172 248 214 320 77 133 119 212 123
230 1 6 8 17 15 25 7 8 14 18 15 22 0 4 13 34 27 65 32 72 83 195 87 208 2 6
6 17 9 25 3 8 15 44 27 80 12 36 25 72 28 80 3 8 6 20 8 25 1 6 16 58 32 116
17 59 33 122 36 140 3 19 10 49 15 67 5 18 10 35 10 37 0 3 2 18 5 33 3 15 8
45 11 67 3 22 7 47 10 55 7 25 21 164 31 310 12 167 5 505 -12 596 -3 16 -7
47 -9 69 -7 70 -18 139 -35 225 -6 30 -13 66 -16 79 -6 31 -35 150 -48 196 -1
6 -9 30 -16 55 -8 25 -14 47 -15 50 -5 23 -69 207 -75 215 -4 6 -11 21 -15 35
-4 14 -18 49 -31 78 -13 29 -24 55 -24 57 0 10 -119 245 -160 315 -91 157
-261 406 -325 477 -5 6 -28 33 -50 60 -96 116 -377 395 -429 425 -7 4 -32 25
-57 47 -24 23 -49 41 -56 41 -6 0 -13 4 -15 9 -4 11 -161 124 -246 177 -90 56
-127 77 -212 121 -41 21 -77 41 -80 44 -12 13 -297 139 -330 145 -8 2 -23 7
-35 13 -22 11 -190 71 -215 76 -8 2 -76 19 -150 38 -122 31 -169 42 -237 53
-13 2 -33 6 -45 8 -13 2 -45 7 -73 10 -27 4 -61 9 -74 11 -29 5 -124 14 -203
20 -32 2 -62 6 -67 9 -5 4 -12 2 -16 -3 -3 -6 -12 -8 -20 -5 -13 5 -224 12
-228 7z"/>
</g>
</svg>
