<?xml version="1.0" standalone="no"?>
<!DOCTYPE svg PUBLIC "-//W3C//DTD SVG 20010904//EN"
 "http://www.w3.org/TR/2001/REC-SVG-20010904/DTD/svg10.dtd">
<svg version="1.0" xmlns="http://www.w3.org/2000/svg"
 width="2948.000000pt" height="2948.000000pt" viewBox="0 0 2948.000000 2948.000000"
 preserveAspectRatio="xMidYMid meet">
<metadata>
Created by potrace 1.14, written by Peter Selinger 2001-2017
</metadata>
<g transform="translate(0.000000,2948.000000) scale(0.100000,-0.100000)"
fill="#000000" stroke="none">
<path d="M14467 29454 c-1 -1 -96 -5 -212 -8 -240 -7 -407 -16 -605 -31 -36
-3 -94 -7 -130 -10 -36 -3 -81 -7 -100 -9 -19 -3 -71 -8 -115 -11 -44 -4 -88
-9 -99 -11 -10 -2 -46 -6 -80 -8 -64 -6 -68 -6 -261 -32 -66 -8 -133 -17 -150
-19 -16 -2 -66 -9 -110 -16 -44 -6 -89 -13 -100 -15 -61 -8 -102 -15 -121 -19
-12 -3 -39 -7 -60 -10 -21 -4 -50 -8 -64 -11 -14 -2 -41 -7 -60 -10 -19 -3
-65 -12 -101 -19 -36 -8 -87 -17 -115 -21 -27 -3 -52 -8 -55 -10 -4 -2 -24 -6
-45 -9 -22 -3 -45 -8 -53 -11 -8 -2 -30 -7 -50 -10 -20 -3 -49 -9 -66 -14 -16
-5 -55 -14 -85 -19 -73 -15 -80 -16 -185 -41 -49 -11 -99 -23 -110 -25 -99
-22 -485 -124 -655 -173 -252 -73 -325 -96 -585 -184 -143 -48 -267 -90 -275
-93 -8 -2 -53 -18 -100 -35 -539 -199 -1182 -479 -1615 -703 -44 -23 -111 -57
-150 -77 -38 -19 -72 -37 -75 -40 -3 -3 -25 -15 -50 -28 -25 -12 -74 -38 -110
-58 -36 -20 -83 -46 -105 -59 -66 -36 -113 -63 -268 -154 -82 -47 -156 -90
-165 -96 -10 -5 -86 -53 -170 -105 -83 -52 -161 -100 -172 -106 -11 -6 -28
-18 -38 -27 -10 -10 -21 -17 -25 -17 -9 0 -343 -226 -490 -331 -65 -46 -128
-91 -140 -99 -65 -44 -507 -380 -527 -400 -3 -3 -25 -21 -50 -40 -122 -94
-412 -338 -535 -450 -28 -25 -88 -79 -134 -120 -168 -149 -251 -229 -551 -530
-258 -257 -424 -430 -513 -534 -10 -11 -35 -39 -55 -61 -279 -303 -696 -825
-1007 -1260 -109 -154 -405 -590 -405 -599 0 -2 -22 -36 -49 -77 -49 -75 -294
-482 -346 -574 -272 -486 -447 -835 -685 -1360 -10 -23 -39 -90 -64 -150 -26
-61 -51 -119 -56 -130 -12 -25 -140 -346 -144 -360 -2 -5 -6 -17 -9 -25 -8
-18 -41 -107 -104 -280 -69 -190 -206 -603 -233 -705 -4 -16 -22 -75 -38 -130
-28 -92 -130 -460 -137 -495 -2 -8 -8 -35 -15 -60 -7 -25 -13 -52 -15 -60 -2
-8 -14 -62 -28 -120 -14 -58 -35 -150 -47 -205 -11 -55 -25 -116 -30 -135 -5
-19 -12 -51 -15 -70 -3 -19 -15 -78 -25 -130 -24 -118 -58 -302 -65 -355 -4
-22 -8 -47 -10 -55 -2 -8 -6 -28 -9 -45 -10 -68 -19 -121 -21 -136 -2 -9 -6
-40 -10 -70 -4 -30 -8 -56 -10 -59 -2 -3 -6 -34 -10 -70 -4 -36 -9 -73 -11
-84 -2 -10 -6 -44 -9 -75 -4 -31 -8 -67 -11 -81 -5 -33 -13 -93 -19 -160 -3
-30 -7 -66 -10 -80 -2 -14 -7 -59 -10 -100 -4 -41 -8 -88 -10 -105 -2 -16 -7
-66 -10 -110 -3 -44 -8 -98 -10 -120 -4 -36 -11 -143 -20 -290 -21 -329 -28
-1209 -12 -1530 14 -268 22 -398 32 -505 2 -25 7 -79 10 -120 3 -41 8 -93 10
-115 2 -22 7 -71 10 -110 4 -38 8 -81 10 -95 2 -14 7 -50 10 -80 4 -30 8 -71
11 -90 2 -19 6 -59 10 -88 3 -29 7 -62 9 -74 3 -11 7 -46 11 -77 3 -31 8 -65
10 -76 2 -10 6 -37 9 -60 20 -139 60 -386 80 -495 23 -121 83 -419 100 -495 8
-38 20 -91 25 -116 27 -135 138 -566 220 -854 62 -217 251 -802 287 -885 3 -8
7 -19 9 -25 4 -18 134 -360 144 -380 5 -11 27 -65 49 -120 43 -111 171 -411
221 -520 35 -78 79 -172 117 -255 66 -141 333 -667 353 -695 4 -5 29 -50 55
-100 84 -157 220 -390 340 -585 42 -69 89 -145 104 -169 33 -55 331 -503 396
-596 94 -135 341 -469 417 -565 15 -19 83 -105 151 -190 67 -85 132 -166 144
-180 12 -14 52 -61 88 -105 37 -44 74 -87 82 -95 7 -8 21 -24 31 -36 29 -36
126 -147 147 -169 11 -12 38 -41 59 -66 172 -194 694 -726 891 -908 162 -149
175 -164 170 -182 -3 -10 -8 -28 -10 -41 -3 -13 -9 -45 -14 -73 -6 -27 -13
-75 -16 -105 -4 -30 -9 -68 -11 -85 -5 -36 -5 -301 -1 -330 3 -17 95 -94 209
-177 12 -9 61 -45 108 -80 173 -128 260 -189 465 -325 264 -176 607 -389 810
-503 22 -12 74 -41 115 -65 143 -80 304 -166 543 -288 l128 -66 29 41 c29 39
80 181 95 261 4 20 11 40 16 43 5 2 55 -22 111 -54 57 -33 130 -74 163 -92 33
-18 83 -45 110 -60 152 -86 614 -319 815 -412 30 -14 95 -44 143 -67 49 -23
90 -41 92 -41 3 0 28 -11 57 -24 82 -37 250 -108 393 -166 72 -29 144 -58 160
-65 17 -6 57 -22 90 -34 33 -13 76 -29 95 -36 101 -40 326 -120 485 -173 154
-52 258 -85 525 -166 25 -8 72 -21 105 -31 33 -9 82 -23 110 -32 84 -26 581
-149 750 -186 139 -31 269 -58 470 -97 28 -5 73 -14 100 -19 51 -10 261 -46
328 -55 64 -10 111 -17 136 -21 13 -2 45 -7 70 -11 25 -3 57 -8 71 -10 14 -2
48 -7 75 -9 28 -3 59 -7 70 -9 28 -5 164 -22 260 -31 28 -3 64 -7 80 -9 17 -3
68 -8 115 -11 47 -4 95 -8 108 -10 12 -2 64 -7 115 -10 50 -3 106 -8 123 -10
16 -2 86 -7 155 -10 68 -4 149 -8 179 -11 323 -22 1162 -22 1510 0 30 2 111 7
180 10 69 4 143 9 165 11 22 3 72 7 110 9 75 5 278 24 335 31 19 2 60 7 90 10
123 13 226 26 254 31 11 2 47 6 80 9 34 3 68 7 76 10 15 4 49 9 135 21 28 3
59 8 70 10 10 2 37 6 60 9 22 4 54 9 70 11 17 3 39 7 50 9 84 13 227 38 263
46 23 5 59 12 80 15 20 3 45 7 54 10 10 3 30 7 45 10 57 10 233 47 383 81 85
19 162 36 171 38 36 7 496 126 519 134 14 5 54 17 90 26 118 32 410 122 585
180 315 105 735 258 862 316 24 10 47 19 51 19 5 0 22 6 38 14 16 8 101 44
189 81 88 37 198 85 243 106 46 21 85 39 87 39 6 0 225 105 430 206 254 125
424 214 625 327 19 11 53 30 75 42 91 50 141 79 167 96 14 11 28 19 31 19 3 0
11 -20 18 -45 l13 -44 136 71 c191 100 482 263 635 353 72 43 144 85 160 95
168 96 726 464 910 600 28 20 97 71 155 113 58 43 143 107 190 143 47 36 108
83 136 104 28 21 79 61 112 89 60 50 60 51 50 87 -5 20 -12 45 -14 55 -2 11
-6 27 -8 37 -5 21 -25 101 -32 123 -3 9 2 23 10 30 7 8 60 57 117 109 137 125
667 656 794 794 55 60 111 122 125 137 180 195 493 569 708 844 48 62 273 361
290 385 9 14 64 92 122 175 58 82 128 184 155 225 28 41 54 79 58 85 13 16
166 252 223 345 156 252 383 641 474 815 29 55 56 105 60 110 17 22 360 717
360 730 0 2 17 41 39 87 60 129 74 162 146 332 99 235 129 311 211 531 41 110
80 214 87 230 6 17 13 35 14 40 1 6 44 135 95 287 51 152 95 282 97 290 2 7
14 49 28 93 13 44 31 103 38 130 8 28 37 133 65 235 57 206 122 463 146 573 8
40 17 79 19 87 3 12 34 153 61 280 9 44 55 284 59 310 3 14 16 93 30 175 30
177 66 420 79 530 3 22 7 56 10 75 8 56 17 131 22 185 3 27 7 61 9 75 2 14 7
59 10 100 3 41 8 86 10 100 2 14 6 61 10 105 3 44 8 103 10 130 6 60 15 199
20 275 1 30 6 127 11 215 17 311 10 1313 -11 1545 -2 25 -6 92 -10 150 -3 58
-7 128 -10 155 -2 28 -7 84 -10 125 -3 41 -8 86 -10 100 -2 14 -6 61 -10 104
-4 43 -8 86 -10 95 -1 9 -6 48 -9 86 -4 39 -9 81 -11 95 -2 14 -6 48 -10 75
-8 62 -21 161 -30 225 -13 87 -47 310 -51 335 -3 17 -7 41 -9 55 -6 37 -24
141 -30 170 -3 14 -9 50 -15 80 -6 30 -12 66 -15 80 -3 14 -7 36 -10 50 -7 36
-32 160 -39 190 -3 14 -8 39 -11 55 -5 24 -53 241 -70 315 -5 20 -75 301 -81
320 -2 8 -12 49 -23 90 -23 87 -99 351 -142 495 -75 246 -280 843 -323 940 -8
17 -28 68 -46 115 -227 599 -552 1273 -960 1995 -68 121 -281 466 -379 615
-30 47 -61 94 -67 105 -6 11 -45 70 -87 130 -41 61 -95 138 -119 173 -75 108
-296 416 -313 436 -5 6 -30 38 -55 71 -106 141 -480 607 -510 635 -3 3 -32 37
-65 75 -33 39 -78 90 -100 115 -22 25 -74 83 -115 130 -194 218 -594 627 -810
830 -30 28 -82 77 -115 108 -34 32 -101 93 -150 137 -49 44 -99 89 -111 100
-91 83 -334 287 -459 388 -55 45 -102 84 -105 87 -10 11 -227 178 -385 297
-524 393 -1176 812 -1730 1113 -205 112 -256 138 -495 258 -327 164 -619 298
-908 418 -48 20 -98 41 -112 47 -14 6 -27 11 -30 12 -3 0 -86 33 -185 72 -99
39 -272 103 -385 143 -113 40 -214 76 -225 81 -52 21 -560 179 -705 219 -313
85 -383 103 -515 135 -38 9 -77 18 -85 20 -148 37 -503 113 -640 138 -14 3
-63 12 -110 21 -47 8 -101 18 -120 21 -19 3 -42 8 -50 10 -8 2 -35 7 -60 10
-59 8 -108 16 -133 21 -12 2 -39 6 -62 9 -22 3 -65 10 -95 15 -30 5 -79 12
-109 15 -30 4 -61 8 -70 10 -9 1 -43 6 -76 9 -33 4 -67 9 -75 11 -8 2 -46 6
-83 10 -37 3 -76 8 -85 10 -9 1 -55 6 -102 10 -47 4 -92 8 -100 10 -8 2 -53 6
-100 9 -47 4 -101 9 -120 11 -91 10 -397 29 -670 41 -127 5 -858 13 -863 8z"/>
</g>
</svg>
