<?xml version="1.0" standalone="no"?>
<!DOCTYPE svg PUBLIC "-//W3C//DTD SVG 20010904//EN"
 "http://www.w3.org/TR/2001/REC-SVG-20010904/DTD/svg10.dtd">
<svg version="1.0" xmlns="http://www.w3.org/2000/svg"
 width="709.000000pt" height="709.000000pt" viewBox="0 0 709.000000 709.000000"
 preserveAspectRatio="xMidYMid meet">
<metadata>
Created by potrace 1.14, written by Peter Selinger 2001-2017
</metadata>
<g transform="translate(0.000000,709.000000) scale(0.100000,-0.100000)"
fill="#000000" stroke="none">
<path d="M3992 6974 c-167 -34 -279 -159 -287 -318 -2 -57 5 -99 36 -221 22
-82 41 -157 43 -165 2 -8 10 -35 17 -60 7 -25 13 -49 14 -55 2 -5 15 -55 30
-110 15 -55 28 -107 30 -115 2 -8 46 -175 98 -370 53 -195 108 -400 122 -455
34 -128 72 -270 85 -315 19 -64 111 -405 115 -422 2 -9 13 -51 25 -93 12 -42
23 -84 25 -93 4 -20 81 -303 94 -347 5 -16 18 -66 30 -110 23 -85 141 -524
191 -710 63 -230 202 -751 205 -765 2 -8 31 -114 64 -235 83 -307 112 -417
117 -439 2 -10 8 -33 14 -51 6 -18 13 -41 15 -51 2 -10 18 -68 34 -129 16 -60
39 -144 50 -185 11 -41 41 -151 66 -245 25 -93 48 -178 50 -189 2 -10 12 -44
21 -75 9 -31 18 -65 20 -76 9 -46 30 -106 37 -107 35 0 401 228 531 331 61 49
64 53 56 84 -4 17 -26 106 -50 197 -23 91 -43 172 -45 180 -2 8 -13 51 -25 95
-12 44 -40 150 -62 235 -22 85 -89 346 -150 580 -60 234 -118 459 -128 500
-10 41 -41 163 -69 270 -28 107 -51 197 -51 200 0 9 972 4 1010 -4 81 -19 163
-77 221 -156 50 -68 49 -73 -40 -124 l-80 -46 -231 0 -231 0 -15 -37 c-8 -21
-33 -76 -55 -121 -29 -61 -40 -97 -40 -130 0 -28 31 -157 76 -317 41 -148 94
-335 116 -415 99 -356 122 -436 129 -443 9 -10 134 127 234 258 42 55 81 105
86 111 63 79 283 477 305 554 4 14 11 30 15 35 19 26 106 309 125 406 70 359
65 602 -17 764 -121 239 -335 390 -582 411 -39 4 -326 7 -638 8 -401 1 -570 4
-578 12 -9 9 -125 409 -145 499 -3 11 -16 61 -30 110 -14 50 -27 97 -29 105
-2 8 -43 157 -91 330 -47 173 -93 339 -101 368 -22 81 -43 157 -58 215 -8 28
-36 129 -61 222 -25 94 -54 199 -64 235 -10 36 -29 103 -41 150 -12 47 -27 99
-32 115 -14 47 -109 397 -114 423 -43 210 -218 336 -412 296z"/>
<path d="M2943 6965 c-100 -30 -178 -98 -218 -189 -12 -28 -37 -107 -55 -176
-18 -69 -48 -183 -67 -255 -19 -71 -37 -137 -39 -145 -2 -8 -8 -33 -14 -55 -6
-22 -12 -47 -14 -55 -2 -8 -11 -40 -20 -70 -8 -30 -47 -176 -87 -325 -39 -148
-88 -337 -111 -420 -22 -82 -41 -157 -43 -165 -5 -20 -62 -236 -118 -445 -26
-93 -80 -298 -121 -455 -56 -210 -81 -289 -95 -301 -18 -15 -79 -16 -603 -15
l-583 1 -67 33 c-48 23 -83 51 -123 95 -66 75 -71 103 -22 151 45 46 116 57
372 58 116 0 222 2 236 4 23 4 28 14 54 116 64 251 189 507 361 738 78 105
266 300 361 375 88 70 81 51 218 555 36 135 68 252 70 260 2 8 31 114 64 235
32 121 58 222 56 223 -2 2 -52 -17 -112 -43 -316 -137 -607 -313 -878 -529
-143 -115 -395 -370 -514 -519 -92 -116 -271 -376 -271 -393 0 -4 -6 -15 -14
-23 -23 -27 -142 -259 -201 -395 -90 -206 -174 -482 -199 -652 -4 -22 -8 -50
-11 -63 -4 -22 -11 -77 -20 -166 -10 -98 -5 -272 10 -330 64 -242 281 -433
535 -471 30 -4 66 -7 80 -6 24 2 105 2 738 0 l263 -1 -5 -31 c-3 -17 -51 -213
-107 -436 -55 -223 -102 -412 -104 -420 -2 -8 -13 -53 -25 -100 -12 -47 -24
-92 -26 -100 -2 -8 -8 -33 -14 -55 -6 -22 -13 -51 -16 -65 -3 -14 -13 -56 -24
-95 -19 -69 -129 -496 -135 -525 -2 -8 -29 -112 -60 -230 -32 -121 -58 -241
-59 -275 l-2 -60 60 -46 c168 -126 504 -324 522 -307 3 4 16 46 30 95 40 147
95 357 99 376 2 9 6 21 9 25 3 5 7 19 10 33 2 13 14 60 26 104 12 44 23 87 25
95 2 8 22 85 45 170 23 85 43 162 45 170 2 8 37 141 78 295 102 379 138 517
142 535 2 8 22 84 45 169 23 84 43 161 45 170 6 26 124 472 141 531 9 30 17
62 19 71 2 9 31 121 65 249 34 128 63 240 65 249 2 9 58 221 125 471 66 250
123 463 125 472 2 10 18 71 35 135 18 65 33 125 35 133 2 8 9 35 16 60 7 25
13 50 15 55 1 6 25 98 54 205 108 406 188 709 219 830 18 69 37 136 41 150 5
14 28 97 50 185 34 131 41 172 37 227 -11 173 -154 308 -331 314 -39 1 -90 -4
-113 -11z"/>
<path d="M4770 6737 c0 -7 11 -53 25 -102 14 -50 33 -115 41 -145 8 -30 23
-84 34 -120 11 -36 65 -225 121 -420 56 -195 107 -366 114 -380 16 -29 59 -70
136 -128 68 -51 228 -206 296 -287 203 -243 329 -489 435 -855 20 -68 27 -69
298 -69 129 1 251 -2 270 -5 151 -29 256 -85 385 -208 40 -37 75 -68 79 -68 7
0 0 151 -10 216 -6 40 -37 164 -55 220 -5 17 -11 40 -13 50 -24 115 -153 439
-259 649 -174 343 -367 617 -596 846 -325 324 -696 570 -1131 751 -149 62
-170 69 -170 55z"/>
<path d="M3538 5718 c-13 -11 -24 -46 -53 -168 -3 -13 -43 -163 -228 -860 -85
-318 -189 -715 -192 -729 -2 -9 -16 -59 -31 -111 -14 -52 -28 -102 -29 -110
-2 -8 -22 -85 -45 -170 -22 -85 -43 -162 -44 -170 -2 -8 -9 -35 -16 -60 -7
-25 -14 -52 -15 -60 -2 -8 -58 -220 -125 -470 -67 -250 -123 -462 -125 -471
-2 -9 -31 -121 -65 -249 -34 -128 -63 -240 -65 -249 -2 -9 -13 -47 -24 -86
-20 -74 -149 -563 -156 -593 -2 -9 -16 -60 -30 -112 -15 -52 -28 -103 -30
-112 -2 -10 -15 -59 -29 -110 -78 -287 -115 -436 -110 -440 5 -6 706 0 729 6
16 4 28 19 39 48 12 34 95 347 111 418 3 14 81 325 91 360 2 8 15 58 28 110
13 52 61 239 106 415 45 176 83 325 84 330 1 6 5 19 9 30 3 11 8 33 11 48 3
16 10 43 15 60 6 18 12 43 15 57 5 29 149 595 166 654 7 21 15 34 20 30 4 -5
18 -40 30 -79 19 -60 29 -97 54 -195 2 -8 12 -44 21 -80 9 -36 19 -72 21 -80
2 -8 19 -76 39 -150 75 -282 97 -365 100 -381 2 -9 24 -96 50 -195 25 -98 48
-186 50 -194 2 -8 26 -105 54 -215 29 -110 54 -211 57 -225 2 -14 7 -32 10
-40 4 -8 14 -49 24 -90 30 -126 140 -553 151 -588 18 -57 28 -58 419 -56 222
1 355 5 357 11 2 6 -13 71 -33 144 -19 74 -39 150 -44 169 -4 19 -38 145 -75
280 -58 216 -129 477 -139 520 -3 8 -21 76 -41 150 -20 74 -45 169 -56 210
-11 41 -56 210 -101 375 -44 165 -81 307 -83 315 -2 8 -13 49 -25 90 -11 41
-23 82 -25 90 -4 19 -75 284 -126 472 -22 81 -42 155 -44 165 -2 10 -21 83
-43 163 -22 80 -56 208 -77 285 -20 77 -46 172 -57 210 -10 39 -21 77 -23 85
-1 8 -29 110 -60 225 -31 116 -61 226 -65 245 -5 19 -22 85 -38 145 -28 103
-117 433 -178 660 -14 55 -40 150 -56 210 -16 61 -33 113 -37 118 -4 4 -14 1
-23 -5z"/>
<path d="M114 3053 c2 -10 7 -40 10 -68 6 -41 46 -235 61 -295 18 -74 63 -215
97 -305 46 -124 189 -428 207 -439 6 -4 9 -12 6 -17 -4 -5 -1 -9 4 -9 6 0 11
-5 11 -11 0 -18 160 -254 246 -365 115 -147 163 -199 168 -183 8 24 38 133 41
149 2 8 13 51 24 95 12 44 23 87 25 95 9 37 47 174 75 275 18 61 33 117 35
125 2 8 23 82 45 165 54 197 63 255 51 332 -13 77 -68 203 -89 204 -9 1 -133
2 -276 4 -143 1 -276 5 -295 9 -114 22 -228 80 -345 177 -52 44 -97 79 -99 79
-3 0 -3 -8 -2 -17z"/>
</g>
</svg>
