<?xml version="1.0" standalone="no"?>
<!DOCTYPE svg PUBLIC "-//W3C//DTD SVG 20010904//EN"
 "http://www.w3.org/TR/2001/REC-SVG-20010904/DTD/svg10.dtd">
<svg version="1.0" xmlns="http://www.w3.org/2000/svg"
 width="70.000000pt" height="70.000000pt" viewBox="0 0 70.000000 70.000000"
 preserveAspectRatio="xMidYMid meet">
<metadata>
Created by potrace 1.14, written by Peter Selinger 2001-2017
</metadata>
<g transform="translate(0.000000,70.000000) scale(0.100000,-0.100000)"
fill="#000000" stroke="none">
<path d="M241 678 c-112 -38 -214 -157 -228 -265 -2 -21 -6 -47 -7 -57 -5 -35
15 -119 40 -168 33 -66 94 -125 163 -157 48 -22 69 -26 151 -26 79 0 103 4
142 24 72 35 133 95 167 163 28 55 31 70 31 155 0 80 -4 102 -26 148 -76 162
-264 241 -433 183z"/>
</g>
</svg>
