<?xml version="1.0" standalone="no"?>
<!DOCTYPE svg PUBLIC "-//W3C//DTD SVG 20010904//EN"
 "http://www.w3.org/TR/2001/REC-SVG-20010904/DTD/svg10.dtd">
<svg version="1.0" xmlns="http://www.w3.org/2000/svg"
 width="707.000000pt" height="707.000000pt" viewBox="0 0 707.000000 707.000000"
 preserveAspectRatio="xMidYMid meet">
<metadata>
Created by potrace 1.14, written by Peter Selinger 2001-2017
</metadata>
<g transform="translate(0.000000,707.000000) scale(0.100000,-0.100000)"
fill="#000000" stroke="none">
<path d="M3397 7064 c-1 -1 -47 -5 -102 -8 -108 -6 -150 -11 -260 -27 -103
-16 -155 -24 -210 -36 -11 -2 -31 -6 -44 -9 -13 -3 -51 -12 -85 -20 -34 -8
-69 -17 -79 -19 -93 -21 -362 -115 -460 -160 -31 -14 -58 -25 -61 -25 -8 0
-222 -107 -287 -143 -199 -111 -410 -260 -599 -422 -70 -60 -286 -277 -337
-338 -28 -34 -60 -71 -70 -82 -109 -121 -325 -450 -422 -644 -131 -263 -245
-580 -295 -822 -3 -13 -8 -35 -11 -49 -8 -34 -34 -185 -41 -240 -3 -25 -8 -56
-9 -70 -26 -181 -26 -697 -1 -835 2 -11 7 -46 11 -79 62 -512 298 -1103 620
-1553 178 -248 448 -537 640 -684 17 -13 32 -26 35 -29 9 -10 122 -95 190
-142 160 -112 393 -243 550 -312 36 -16 90 -40 120 -53 209 -94 581 -192 900
-237 196 -28 724 -29 865 -2 11 2 47 7 80 10 70 8 296 52 341 67 17 5 41 12
53 14 11 3 30 7 41 9 11 3 60 17 108 32 386 119 769 317 1088 560 728 556
1210 1355 1352 2244 36 219 46 352 46 580 -1 142 -5 222 -19 385 -4 39 -23
170 -31 209 -2 11 -7 37 -10 56 -3 19 -9 51 -14 70 -5 19 -11 46 -14 60 -42
211 -132 473 -247 716 -16 34 -29 64 -29 67 0 11 -164 294 -213 367 -47 70
-175 249 -187 260 -3 3 -37 43 -76 90 -133 157 -339 357 -484 470 -25 19 -47
37 -50 40 -3 4 -50 39 -105 78 -212 152 -512 316 -745 407 -99 39 -346 122
-383 129 -12 2 -49 11 -82 19 -33 9 -73 18 -90 21 -34 7 -68 13 -105 21 -14 3
-41 8 -60 11 -19 3 -45 7 -56 9 -12 2 -48 7 -80 10 -33 4 -66 9 -75 10 -59 11
-503 27 -512 19z"/>
</g>
</svg>
