<?xml version="1.0" standalone="no"?>
<!DOCTYPE svg PUBLIC "-//W3C//DTD SVG 20010904//EN"
 "http://www.w3.org/TR/2001/REC-SVG-20010904/DTD/svg10.dtd">
<svg version="1.0" xmlns="http://www.w3.org/2000/svg"
 width="708.000000pt" height="708.000000pt" viewBox="0 0 708.000000 708.000000"
 preserveAspectRatio="xMidYMid meet">
<metadata>
Created by potrace 1.14, written by Peter Selinger 2001-2017
</metadata>
<g transform="translate(0.000000,708.000000) scale(0.100000,-0.100000)"
fill="#000000" stroke="none">
<path d="M3407 7063 c-1 -1 -47 -4 -102 -7 -55 -4 -116 -8 -135 -10 -19 -3
-59 -8 -89 -11 -30 -4 -62 -8 -72 -10 -9 -2 -39 -7 -66 -11 -26 -5 -50 -9 -53
-9 -3 -1 -23 -5 -45 -9 -164 -32 -504 -133 -610 -181 -16 -8 -59 -26 -95 -40
-215 -88 -568 -298 -775 -461 -218 -172 -450 -404 -595 -594 -19 -25 -37 -47
-40 -50 -17 -14 -155 -219 -216 -320 -83 -137 -244 -459 -244 -488 0 -5 -7
-23 -15 -39 -15 -30 -94 -254 -100 -283 -2 -8 -15 -59 -30 -114 -15 -54 -29
-110 -31 -125 -3 -14 -7 -33 -9 -41 -2 -8 -7 -31 -10 -50 -3 -19 -8 -42 -10
-50 -2 -8 -7 -37 -11 -65 -3 -27 -8 -59 -10 -70 -2 -11 -7 -47 -10 -80 -3 -33
-8 -71 -11 -85 -9 -43 -11 -552 -3 -615 5 -33 11 -89 14 -125 4 -36 13 -105
22 -155 13 -77 21 -120 49 -257 2 -9 13 -52 25 -95 170 -613 470 -1130 916
-1579 98 -98 124 -130 119 -145 -9 -28 -10 -123 -1 -137 34 -56 535 -362 570
-349 7 3 16 19 19 36 7 35 22 39 55 15 32 -22 287 -148 352 -174 30 -12 69
-28 85 -35 41 -19 325 -115 325 -110 0 2 19 -2 41 -11 23 -8 51 -16 63 -19
234 -50 264 -56 401 -76 212 -31 738 -34 891 -5 10 2 46 7 79 10 73 8 284 51
380 76 274 73 443 137 703 266 106 53 196 94 199 90 6 -6 168 76 221 113 15
10 68 44 117 76 75 49 226 157 259 186 5 4 4 20 -2 37 -10 29 -7 33 66 105
102 98 187 188 247 262 28 33 52 62 55 65 12 11 109 140 151 200 220 314 434
773 515 1103 2 9 6 25 8 35 27 104 58 259 71 352 9 63 18 129 20 145 23 157
24 633 1 765 -3 14 -7 52 -11 85 -9 86 -33 217 -56 315 -11 47 -22 92 -24 100
-58 272 -248 715 -431 1000 -71 112 -203 301 -224 320 -3 3 -25 30 -50 60
-341 421 -870 809 -1375 1010 -44 17 -89 36 -100 40 -19 9 -151 52 -255 85
-62 20 -237 62 -284 69 -21 4 -41 8 -45 10 -3 2 -33 7 -65 10 -32 4 -62 8 -65
10 -3 3 -31 7 -61 10 -30 4 -70 8 -88 10 -101 13 -506 28 -515 19z"/>
</g>
</svg>
